{"title":"Terminator Genisys 2015 TS READNFO x264 MenaceIISociety","uid":12107234,"size":1191170212,"categoryP":"video","categoryS":"movies","magnet":"?xt=urn:btih:d3d167e8e2e699930cd9b6ed14c710dd78dd8fdc&amp;dn=Terminator+Genisys+2015+TS+READNFO+x264+MenaceIISociety&amp;tr=udp%3A%2F%2Ftracker.openbittorrent.com%3A80&amp;tr=udp%3A%2F%2Fopen.demonii.com%3A1337&amp;tr=udp%3A%2F%2Ftracker.coppersurfer.tk%3A6969&amp;tr=udp%3A%2F%2Fexodus.desync.com%3A6969","seeders":8,"leechers":1,"uploader":"SS132203","files":4,"time":1436473645,"description":"Terminator Genisys 2015 TS READNFO x264 MenaceIISociety\n &lt;a href=&quot;\nhttp://imgsparrow.co/image/M1&quot; rel=&quot;nofollow&quot; target=&quot;_NEW&quot;&gt;\nhttp://imgsparrow.co/image/M1&lt;/a&gt;\n &lt;a href=&quot;\nhttp://imgsparrow.co/image/9b&quot; rel=&quot;nofollow&quot; target=&quot;_NEW&quot;&gt;\nhttp://imgsparrow.co/image/9b&lt;/a&gt;\n\nInfo : - \n\nTerminator.Genisys.2015.TS.READNFO.x264-MenaceIISociety\n &lt;a href=&quot;\nhttp://www.imdb.com/title/tt1340138/&quot; rel=&quot;nofollow&quot; target=&quot;_NEW&quot;&gt;\nhttp://www.imdb.com/title/tt1340138/&lt;/a&gt;\nSource: NEW HD-TS-MRG [THANKS]\n\nNOTE: Rotated 3.500, fixed perspective best i could its near perfect, resized, made some adjustments, the dark scenes are abit more viewable. Enjoy\n\nGeneral\nComplete name: Terminator.Genisys.2015.TS.READNFO.x264-MenaceIISociety.mp4\nFormat: MPEG-4\nFormat profile: Base Media\nCodec ID: isom\nFile size: 1.09 GiB\nDuration: 1h 58mn\nOverall bit rate mode: Variable\nOverall bit rate: 1 323 Kbps\nEncoded date: UTC 2015-07-09 02:43:13\nTagged date: UTC 2015-07-09 02:43:13\n\nVideo\nID: 1\nFormat: AVC\nFormat/Info: Advanced Video Codec\nFormat profile: &lt;a class=&quot;__cf_email__&quot; href=&quot;/cdn-cgi/l/email-protection&quot; data-cfemail=&quot;c880a1afa08884fce6f9&quot;&gt;[email&amp;#160;protected]&lt;/a&gt;&lt;script data-cfhash='f9e31' type=&quot;text/javascript&quot;&gt;\n/* &lt;![CDATA[ */!function(){try{var t=&quot;currentScript&quot;in document?document.currentScript:function(){for(var t=document.getElementsByTagName(&quot;script&quot;),e=t.length;e--;)if(t[e].getAttribute(&quot;data-cfhash&quot;))return t[e]}();if(t&amp;&amp;t.previousSibling){var e,r,n,i,c=t.previousSibling,a=c.getAttribute(&quot;data-cfemail&quot;);if(a){for(e=&quot;&quot;,r=parseInt(a.substr(0,2),16),n=2;a.length-n;n+=2)i=parseInt(a.substr(n,2),16)^r,e+=String.fromCharCode(i);e=document.createTextNode(e),c.parentNode.replaceChild(e,c)}t.parentNode.removeChild(t);}}catch(u){}}()/* ]]&gt; */&lt;/script&gt;\nFormat settings, CABAC: Yes\nFormat settings, ReFrames: 3 frames\nCodec ID: avc1\nCodec ID/Info: Advanced Video Coding\nDuration: 1h 58mn\nBit rate mode: Variable\nBit rate: 1 183 Kbps\nMaximum bit rate: 40.0 Mbps\nWidth: 720 pixels\nHeight: 304 pixels\nDisplay aspect ratio: 2.35:1\nFrame rate mode: Constant\nFrame rate: 29.917 fps\nColor space: YUV\nChroma subsampling: 4:2:0\nBit depth: 8 bits\nScan type: Progressive\nBits/(Pixel*Frame): 0.181\nStream size: 1 000 MiB (89%)\nWriting library: x264 core 146 r2538 121396c\n\nAudio\nID: 2\nFormat: AAC\nFormat/Info: Advanced Audio Codec\nFormat profile: LC\nCodec ID: 40\nDuration: 1h 57mn\nBit rate mode: Variable\nBit rate: 137 Kbps\nMaximum bit rate: 153 Kbps\nChannel(s): 2 channels\nChannel positions: Front: L R\nSampling rate: 48.0 KHz\nCompression mode: Lossy\nStream size: 115 MiB (10%)\nEncoded date: UTC 2015-07-08 15:27:59\nTagged date: UTC 2015-07-09 03:06:37 \n\nScreens : - \n &lt;a href=&quot;\nhttp://imgsparrow.co/image/0m&quot; rel=&quot;nofollow&quot; target=&quot;_NEW&quot;&gt;\nhttp://imgsparrow.co/image/0m&lt;/a&gt; &lt;a href=&quot;\nhttp://imgsparrow.co/image/0F&quot; rel=&quot;nofollow&quot; target=&quot;_NEW&quot;&gt;\nhttp://imgsparrow.co/image/0F&lt;/a&gt; &lt;a href=&quot;\nhttp://imgsparrow.co/image/0O&quot; rel=&quot;nofollow&quot; target=&quot;_NEW&quot;&gt;\nhttp://imgsparrow.co/image/0O&lt;/a&gt; &lt;a href=&quot;\nhttp://imgsparrow.co/image/0p&quot; rel=&quot;nofollow&quot; target=&quot;_NEW&quot;&gt;\nhttp://imgsparrow.co/image/0p&lt;/a&gt; &lt;a href=&quot;\nhttp://imgsparrow.co/image/00&quot; rel=&quot;nofollow&quot; target=&quot;_NEW&quot;&gt;\nhttp://imgsparrow.co/image/00&lt;/a&gt; &lt;a href=&quot;\nhttp://imgsparrow.co/image/0B&quot; rel=&quot;nofollow&quot; target=&quot;_NEW&quot;&gt;\nhttp://imgsparrow.co/image/0B&lt;/a&gt; &lt;a href=&quot;\nhttp://imgsparrow.co/image/0K&quot; rel=&quot;nofollow&quot; target=&quot;_NEW&quot;&gt;\nhttp://imgsparrow.co/image/0K&lt;/a&gt; &lt;a href=&quot;\nhttp://imgsparrow.co/image/02&quot; rel=&quot;nofollow&quot; target=&quot;_NEW&quot;&gt;\nhttp://imgsparrow.co/image/02&lt;/a&gt; &lt;a href=&quot;\nhttp://imgsparrow.co/image/03&quot; rel=&quot;nofollow&quot; target=&quot;_NEW&quot;&gt;\nhttp://imgsparrow.co/image/03&lt;/a&gt; &lt;a href=&quot;\nhttp://imgsparrow.co/image/0i&quot; rel=&quot;nofollow&quot; target=&quot;_NEW&quot;&gt;\nhttp://imgsparrow.co/image/0i&lt;/a&gt;\n &lt;a href=&quot;\nhttp://imgsparrow.co/image/N2&quot; rel=&quot;nofollow&quot; target=&quot;_NEW&quot;&gt;\nhttp://imgsparrow.co/image/N2&lt;/a&gt;","torrent":{"xt":"urn:btih:d3d167e8e2e699930cd9b6ed14c710dd78dd8fdc","amp;dn":"Terminator+Genisys+2015+TS+READNFO+x264+MenaceIISociety","amp;tr":["udp%3A%2F%2Ftracker.openbittorrent.com%3A80","udp%3A%2F%2Fopen.demonii.com%3A1337","udp%3A%2F%2Ftracker.coppersurfer.tk%3A6969","udp%3A%2F%2Fexodus.desync.com%3A6969"],"infoHash":"d3d167e8e2e699930cd9b6ed14c710dd78dd8fdc","infoHashBuffer":{"type":"Buffer","data":[211,209,103,232,226,230,153,147,12,217,182,237,20,199,16,221,120,221,143,220]},"announce":[],"urlList":[]}}